<?xml version="1.0" encoding="utf-8" standalone="no"?>
<!DOCTYPE svg PUBLIC "-//W3C//DTD SVG 1.1//EN"
  "http://www.w3.org/Graphics/SVG/1.1/DTD/svg11.dtd">
<svg xmlns:xlink="http://www.w3.org/1999/xlink" width="490.435865pt" height="313.40784pt" viewBox="0 0 490.435865 313.40784" xmlns="http://www.w3.org/2000/svg" version="1.1">
 <metadata>
  <rdf:RDF xmlns:dc="http://purl.org/dc/elements/1.1/" xmlns:cc="http://creativecommons.org/ns#" xmlns:rdf="http://www.w3.org/1999/02/22-rdf-syntax-ns#">
   <cc:Work>
    <dc:type rdf:resource="http://purl.org/dc/dcmitype/StillImage"/>
    <dc:date>2026-06-05T09:48:15.522109</dc:date>
    <dc:format>image/svg+xml</dc:format>
    <dc:creator>
     <cc:Agent>
      <dc:title>Matplotlib v3.10.8, https://matplotlib.org/</dc:title>
     </cc:Agent>
    </dc:creator>
   </cc:Work>
  </rdf:RDF>
 </metadata>
 <defs>
  <style type="text/css">*{stroke-linejoin: round; stroke-linecap: butt}</style>
 </defs>
 <g id="figure_1">
  <g id="patch_1">
   <path d="M 0 313.40784 
L 490.435865 313.40784 
L 490.435865 0 
L 0 0 
z
" style="fill: #ffffff"/>
  </g>
  <g id="axes_1">
   <g id="patch_2">
    <path d="M 10.587344 245.592 
L 479.451344 245.592 
L 479.451344 7.2 
L 10.587344 7.2 
z
" style="fill: #ffffff"/>
   </g>
   <g id="line2d_1">
    <path d="M 35.049813 245.592 
L 35.049813 7.2 
" clip-path="url(#p0dd54f3dad)" style="fill: none; stroke: #888888; stroke-width: 0.8; stroke-linecap: square"/>
   </g>
   <g id="line2d_2">
    <path d="M 116.591379 245.592 
L 116.591379 7.2 
" clip-path="url(#p0dd54f3dad)" style="fill: none; stroke: #888888; stroke-width: 0.8; stroke-linecap: square"/>
   </g>
   <g id="line2d_3">
    <path d="M 198.132944 245.592 
L 198.132944 7.2 
" clip-path="url(#p0dd54f3dad)" style="fill: none; stroke: #888888; stroke-width: 0.8; stroke-linecap: square"/>
   </g>
   <g id="line2d_4">
    <path d="M 279.674509 245.592 
L 279.674509 7.2 
" clip-path="url(#p0dd54f3dad)" style="fill: none; stroke: #888888; stroke-width: 0.8; stroke-linecap: square"/>
   </g>
   <g id="line2d_5">
    <path d="M 361.216074 245.592 
L 361.216074 7.2 
" clip-path="url(#p0dd54f3dad)" style="fill: none; stroke: #888888; stroke-width: 0.8; stroke-linecap: square"/>
   </g>
   <g id="line2d_6">
    <path d="M 442.757639 245.592 
L 442.757639 7.2 
" clip-path="url(#p0dd54f3dad)" style="fill: none; stroke: #888888; stroke-width: 0.8; stroke-linecap: square"/>
   </g>
   <g id="matplotlib.axis_1">
    <g id="xtick_1">
     <g id="line2d_7">
      <defs>
       <path id="m427cabfc8b" d="M 0 0 
L 0 3.5 
" style="stroke: #000000; stroke-width: 0.7"/>
      </defs>
      <g>
       <use xlink:href="#m427cabfc8b" x="35.049813" y="245.592" style="stroke: #000000; stroke-width: 0.7"/>
      </g>
     </g>
     <g id="text_1">
      <text style="font-size: 8px; font-family: 'DejaVu Sans'" transform="translate(17.628563 258.67075)">Grid size</text>
      <text style="font-size: 8px; font-family: 'DejaVu Sans'" transform="translate(14.996688 267.629)">(10⁶ cells)</text>
     </g>
    </g>
    <g id="xtick_2">
     <g id="line2d_8">
      <g>
       <use xlink:href="#m427cabfc8b" x="116.591379" y="245.592" style="stroke: #000000; stroke-width: 0.7"/>
      </g>
     </g>
     <g id="text_2">
      <text style="font-size: 8px; font-family: 'DejaVu Sans'" transform="translate(94.964504 258.67075)">Min cell Δx</text>
      <text style="font-size: 8px; font-family: 'DejaVu Sans'" transform="translate(109.573879 267.629)">(m)</text>
     </g>
    </g>
    <g id="xtick_3">
     <g id="line2d_9">
      <g>
       <use xlink:href="#m427cabfc8b" x="198.132944" y="245.592" style="stroke: #000000; stroke-width: 0.7"/>
      </g>
     </g>
     <g id="text_3">
      <text style="font-size: 8px; font-family: 'DejaVu Sans'" transform="translate(176.187944 258.67075)">Core-hours</text>
      <text style="font-size: 8px; font-family: 'DejaVu Sans'" transform="translate(172.795444 267.629)">(CPU-core-h)</text>
     </g>
    </g>
    <g id="xtick_4">
     <g id="line2d_10">
      <g>
       <use xlink:href="#m427cabfc8b" x="279.674509" y="245.592" style="stroke: #000000; stroke-width: 0.7"/>
      </g>
     </g>
     <g id="text_4">
      <text style="font-size: 8px; font-family: 'DejaVu Sans'" transform="translate(259.583884 258.67075)">Wall-clock</text>
      <text style="font-size: 8px; font-family: 'DejaVu Sans'" transform="translate(267.111384 267.629)">(days)</text>
     </g>
    </g>
    <g id="xtick_5">
     <g id="line2d_11">
      <g>
       <use xlink:href="#m427cabfc8b" x="361.216074" y="245.592" style="stroke: #000000; stroke-width: 0.7"/>
      </g>
     </g>
     <g id="text_5">
      <text style="font-size: 8px; font-family: 'DejaVu Sans'" transform="translate(347.211074 258.67075)">Energy</text>
      <text style="font-size: 8px; font-family: 'DejaVu Sans'" transform="translate(348.153574 267.629)">(MWh)</text>
     </g>
    </g>
    <g id="xtick_6">
     <g id="line2d_12">
      <g>
       <use xlink:href="#m427cabfc8b" x="442.757639" y="245.592" style="stroke: #000000; stroke-width: 0.7"/>
      </g>
     </g>
     <g id="text_6">
      <text style="font-size: 8px; font-family: 'DejaVu Sans'" transform="translate(433.865139 258.67075)">Cost</text>
      <text style="font-size: 8px; font-family: 'DejaVu Sans'" transform="translate(437.091389 267.629)">(€)</text>
     </g>
    </g>
   </g>
   <g id="matplotlib.axis_2"/>
   <g id="line2d_13">
    <path d="M 35.049813 136.53396 
L 116.591379 24.07731 
L 198.132944 117.076284 
L 279.674509 114.556167 
L 361.216074 122.475336 
L 442.757639 122.475336 
" clip-path="url(#p0dd54f3dad)" style="fill: none; stroke: #1d9e75; stroke-opacity: 0.55; stroke-linecap: square"/>
   </g>
   <g id="line2d_14">
    <path d="M 35.049813 121.983458 
L 116.591379 24.07731 
L 198.132944 99.131804 
L 279.674509 92.010897 
L 361.216074 103.48909 
L 442.757639 103.48909 
" clip-path="url(#p0dd54f3dad)" style="fill: none; stroke: #1d9e75; stroke-opacity: 0.55; stroke-linecap: square"/>
   </g>
   <g id="line2d_15">
    <path d="M 35.049813 185.129577 
L 116.591379 35.470717 
L 198.132944 208.620267 
L 279.674509 171.287074 
L 361.216074 205.601362 
L 442.757639 205.601362 
" clip-path="url(#p0dd54f3dad)" style="fill: none; stroke-dasharray: 5,3; stroke-dashoffset: 0; stroke: #1d9e75; stroke-opacity: 0.55"/>
   </g>
   <g id="line2d_16">
    <path d="M 35.049813 170.082036 
L 116.591379 35.470717 
L 198.132944 197.51047 
L 279.674509 157.328834 
L 361.216074 193.846587 
L 442.757639 193.846587 
" clip-path="url(#p0dd54f3dad)" style="fill: none; stroke-dasharray: 5,3; stroke-dashoffset: 0; stroke: #1d9e75; stroke-opacity: 0.55"/>
   </g>
   <g id="line2d_17">
    <path d="M 35.049813 189.204611 
L 116.591379 217.116533 
L 198.132944 223.468058 
L 279.674509 235.043681 
L 361.216074 235.043681 
L 442.757639 235.043681 
" clip-path="url(#p0dd54f3dad)" style="fill: none; stroke: #d85a30; stroke-opacity: 0.55; stroke-linecap: square"/>
   </g>
   <g id="line2d_18">
    <path d="M 35.049813 186.4205 
L 116.591379 227.707966 
L 198.132944 219.261651 
L 279.674509 229.758792 
L 361.216074 230.593071 
L 442.757639 230.593071 
" clip-path="url(#p0dd54f3dad)" style="fill: none; stroke: #d85a30; stroke-opacity: 0.55; stroke-linecap: square"/>
   </g>
   <g id="line2d_19">
    <path d="M 35.049813 235.043681 
L 116.591379 224.452249 
L 198.132944 235.043681 
L 279.674509 204.485195 
L 361.216074 233.558787 
L 442.757639 233.558787 
" clip-path="url(#p0dd54f3dad)" style="fill: none; stroke-dasharray: 5,3; stroke-dashoffset: 0; stroke: #d85a30; stroke-opacity: 0.55"/>
   </g>
   <g id="line2d_20">
    <path d="M 35.049813 229.259539 
L 116.591379 235.043681 
L 198.132944 229.148527 
L 279.674509 197.078581 
L 361.216074 227.32139 
L 442.757639 227.32139 
" clip-path="url(#p0dd54f3dad)" style="fill: none; stroke-dasharray: 5,3; stroke-dashoffset: 0; stroke: #d85a30; stroke-opacity: 0.55"/>
   </g>
   <g id="line2d_21">
    <path d="M 35.049813 58.133815 
L 116.591379 24.07731 
L 198.132944 61.007399 
L 279.674509 70.475914 
L 361.216074 63.151374 
L 442.757639 63.151374 
" clip-path="url(#p0dd54f3dad)" style="fill: none; stroke: #1d9e75; stroke-opacity: 0.55; stroke-linecap: square"/>
   </g>
   <g id="line2d_22">
    <path d="M 35.049813 42.662815 
L 116.591379 24.07731 
L 198.132944 42.544739 
L 279.674509 47.279608 
L 361.216074 43.616865 
L 442.757639 43.616865 
" clip-path="url(#p0dd54f3dad)" style="fill: none; stroke: #1d9e75; stroke-opacity: 0.55; stroke-linecap: square"/>
   </g>
   <g id="line2d_23">
    <path d="M 35.049813 105.868082 
L 116.591379 35.470717 
L 198.132944 150.471742 
L 279.674509 124.593981 
L 361.216074 144.077027 
L 442.757639 144.077027 
" clip-path="url(#p0dd54f3dad)" style="fill: none; stroke-dasharray: 5,3; stroke-dashoffset: 0; stroke: #1d9e75; stroke-opacity: 0.55"/>
   </g>
   <g id="line2d_24">
    <path d="M 35.049813 90.259682 
L 116.591379 35.470717 
L 198.132944 139.046156 
L 279.674509 110.238986 
L 361.216074 131.988128 
L 442.757639 131.988128 
" clip-path="url(#p0dd54f3dad)" style="fill: none; stroke-dasharray: 5,3; stroke-dashoffset: 0; stroke: #1d9e75; stroke-opacity: 0.55"/>
   </g>
   <g id="line2d_25">
    <path d="M 35.049813 39.589268 
L 116.591379 24.07731 
L 198.132944 42.563026 
L 279.674509 47.302584 
L 361.216074 43.636214 
L 442.757639 43.636214 
" clip-path="url(#p0dd54f3dad)" style="fill: none; stroke: #1d9e75; stroke-opacity: 0.55; stroke-linecap: square"/>
   </g>
   <g id="line2d_26">
    <path d="M 35.049813 24.07731 
L 116.591379 24.07731 
L 198.132944 24.07731 
L 279.674509 24.07731 
L 361.216074 24.07731 
L 442.757639 24.07731 
" clip-path="url(#p0dd54f3dad)" style="fill: none; stroke: #1d9e75; stroke-opacity: 0.55; stroke-linecap: square"/>
   </g>
   <g id="line2d_27">
    <path d="M 35.049813 87.285164 
L 116.591379 35.470717 
L 198.132944 130.961514 
L 279.674509 100.081522 
L 361.216074 123.434134 
L 442.757639 123.434134 
" clip-path="url(#p0dd54f3dad)" style="fill: none; stroke-dasharray: 5,3; stroke-dashoffset: 0; stroke: #1d9e75; stroke-opacity: 0.55"/>
   </g>
   <g id="line2d_28">
    <path d="M 35.049813 71.652461 
L 116.591379 35.470717 
L 198.132944 119.522171 
L 279.674509 85.709243 
L 361.216074 111.33068 
L 442.757639 111.33068 
" clip-path="url(#p0dd54f3dad)" style="fill: none; stroke-dasharray: 5,3; stroke-dashoffset: 0; stroke: #1d9e75; stroke-opacity: 0.55"/>
   </g>
   <g id="line2d_29">
    <path d="M 35.049813 129.853069 
L 116.591379 217.116533 
L 198.132944 178.122325 
L 279.674509 178.071744 
L 361.216074 187.065403 
L 442.757639 187.065403 
" clip-path="url(#p0dd54f3dad)" style="fill: none; stroke: #d85a30; stroke-opacity: 0.55; stroke-linecap: square"/>
   </g>
   <g id="line2d_30">
    <path d="M 35.049813 124.068926 
L 116.591379 227.707966 
L 198.132944 172.227066 
L 279.674509 170.664999 
L 361.216074 180.827896 
L 442.757639 180.827896 
" clip-path="url(#p0dd54f3dad)" style="fill: none; stroke: #d85a30; stroke-opacity: 0.55; stroke-linecap: square"/>
   </g>
   <g id="line2d_31">
    <path d="M 35.049813 164.081916 
L 116.591379 224.452249 
L 198.132944 181.567433 
L 279.674509 163.662304 
L 361.216074 176.977977 
L 442.757639 176.977977 
" clip-path="url(#p0dd54f3dad)" style="fill: none; stroke-dasharray: 5,3; stroke-dashoffset: 0; stroke: #d85a30; stroke-opacity: 0.55"/>
   </g>
   <g id="line2d_32">
    <path d="M 35.049813 156.155034 
L 116.591379 235.043681 
L 198.132944 174.465924 
L 279.674509 154.740038 
L 361.216074 169.46419 
L 442.757639 169.46419 
" clip-path="url(#p0dd54f3dad)" style="fill: none; stroke-dasharray: 5,3; stroke-dashoffset: 0; stroke: #d85a30; stroke-opacity: 0.55"/>
   </g>
   <g id="line2d_33">
    <path d="M 35.049813 112.594222 
L 116.591379 217.116533 
L 198.132944 160.401716 
L 279.674509 155.807744 
L 361.216074 168.316025 
L 442.757639 168.316025 
" clip-path="url(#p0dd54f3dad)" style="fill: none; stroke: #d85a30; stroke-opacity: 0.55; stroke-linecap: square"/>
   </g>
   <g id="line2d_34">
    <path d="M 35.049813 106.537553 
L 116.591379 227.707966 
L 198.132944 154.353051 
L 279.674509 148.20826 
L 361.216074 161.916205 
L 442.757639 161.916205 
" clip-path="url(#p0dd54f3dad)" style="fill: none; stroke: #d85a30; stroke-opacity: 0.55; stroke-linecap: square"/>
   </g>
   <g id="line2d_35">
    <path d="M 35.049813 145.928342 
L 116.591379 224.452249 
L 198.132944 162.298809 
L 279.674509 139.453394 
L 361.216074 156.590714 
L 442.757639 156.590714 
" clip-path="url(#p0dd54f3dad)" style="fill: none; stroke-dasharray: 5,3; stroke-dashoffset: 0; stroke: #d85a30; stroke-opacity: 0.55"/>
   </g>
   <g id="line2d_36">
    <path d="M 35.049813 137.876926 
L 116.591379 235.043681 
L 198.132944 155.127247 
L 279.674509 130.443113 
L 361.216074 149.002807 
L 442.757639 149.002807 
" clip-path="url(#p0dd54f3dad)" style="fill: none; stroke-dasharray: 5,3; stroke-dashoffset: 0; stroke: #d85a30; stroke-opacity: 0.55"/>
   </g>
   <g id="text_7">
    <text style="font-size: 6.5px; font-family: 'DejaVu Sans'; text-anchor: start; fill: #333333" x="38.311476" y="236.837275" transform="rotate(-0 38.311476 236.837275)">10</text>
   </g>
   <g id="text_8">
    <text style="font-size: 6.5px; font-family: 'DejaVu Sans'; text-anchor: start; fill: #333333" x="38.311476" y="131.354089" transform="rotate(-0 38.311476 131.354089)">505</text>
   </g>
   <g id="text_9">
    <text style="font-size: 6.5px; font-family: 'DejaVu Sans'; text-anchor: start; fill: #333333" x="38.311476" y="25.870903" transform="rotate(-0 38.311476 25.870903)">25,550</text>
   </g>
   <g id="text_10">
    <text style="font-size: 6.5px; font-family: 'DejaVu Sans'; text-anchor: start; fill: #333333" x="119.853041" y="236.837275" transform="rotate(-0 119.853041 236.837275)">3.75</text>
   </g>
   <g id="text_11">
    <text style="font-size: 6.5px; font-family: 'DejaVu Sans'; text-anchor: start; fill: #333333" x="119.853041" y="131.354089" transform="rotate(-0 119.853041 131.354089)">6e-03</text>
   </g>
   <g id="text_12">
    <text style="font-size: 6.5px; font-family: 'DejaVu Sans'; text-anchor: start; fill: #333333" x="119.853041" y="25.870903" transform="rotate(-0 119.853041 25.870903)">1e-05</text>
   </g>
   <g id="text_13">
    <text style="font-size: 6.5px; font-family: 'DejaVu Sans'; text-anchor: start; fill: #333333" x="201.394606" y="236.837275" transform="rotate(-0 201.394606 236.837275)">40,534</text>
   </g>
   <g id="text_14">
    <text style="font-size: 6.5px; font-family: 'DejaVu Sans'; text-anchor: start; fill: #333333" x="201.394606" y="131.354089" transform="rotate(-0 201.394606 131.354089)">43,080,087</text>
   </g>
   <g id="text_15">
    <text style="font-size: 6.5px; font-family: 'DejaVu Sans'; text-anchor: start; fill: #333333" x="201.394606" y="25.870903" transform="rotate(-0 201.394606 25.870903)">45,785,600,000</text>
   </g>
   <g id="text_16">
    <text style="font-size: 6.5px; font-family: 'DejaVu Sans'; text-anchor: start; fill: #333333" x="282.936172" y="236.837275" transform="rotate(-0 282.936172 236.837275)">0.19</text>
   </g>
   <g id="text_17">
    <text style="font-size: 6.5px; font-family: 'DejaVu Sans'; text-anchor: start; fill: #333333" x="282.936172" y="131.354089" transform="rotate(-0 282.936172 131.354089)">48</text>
   </g>
   <g id="text_18">
    <text style="font-size: 6.5px; font-family: 'DejaVu Sans'; text-anchor: start; fill: #333333" x="282.936172" y="25.870903" transform="rotate(-0 282.936172 25.870903)">12,420</text>
   </g>
   <g id="text_19">
    <text style="font-size: 6.5px; font-family: 'DejaVu Sans'; text-anchor: start; fill: #333333" x="364.477737" y="236.837275" transform="rotate(-0 364.477737 236.837275)">0.44</text>
   </g>
   <g id="text_20">
    <text style="font-size: 6.5px; font-family: 'DejaVu Sans'; text-anchor: start; fill: #333333" x="364.477737" y="131.354089" transform="rotate(-0 364.477737 131.354089)">316</text>
   </g>
   <g id="text_21">
    <text style="font-size: 6.5px; font-family: 'DejaVu Sans'; text-anchor: start; fill: #333333" x="364.477737" y="25.870903" transform="rotate(-0 364.477737 25.870903)">228,928</text>
   </g>
   <g id="text_22">
    <text style="font-size: 6.5px; font-family: 'DejaVu Sans'; text-anchor: start; fill: #333333" x="446.019302" y="236.837275" transform="rotate(-0 446.019302 236.837275)">65</text>
   </g>
   <g id="text_23">
    <text style="font-size: 6.5px; font-family: 'DejaVu Sans'; text-anchor: start; fill: #333333" x="446.019302" y="131.354089" transform="rotate(-0 446.019302 131.354089)">47,358</text>
   </g>
   <g id="text_24">
    <text style="font-size: 6.5px; font-family: 'DejaVu Sans'; text-anchor: start; fill: #333333" x="446.019302" y="25.870903" transform="rotate(-0 446.019302 25.870903)">34,339,200</text>
   </g>
   <g id="patch_3">
    <path d="M 20.372332 233.044626 
Q 20.372332 129.56059 20.372332 26.970982 
" style="fill: none; stroke: #555555; stroke-width: 0.8; stroke-linecap: round"/>
    <path d="M 18.672332 30.370982 
L 20.372332 26.970982 
L 22.072332 30.370982 
" style="fill: none; stroke: #555555; stroke-width: 0.8; stroke-linecap: round"/>
   </g>
   <g id="text_25">
    <text style="font-size: 7px; font-family: 'DejaVu Sans'; fill: #555555" transform="translate(12.518906 194.515574) rotate(-90)">higher = more demanding (Δx: finer)</text>
   </g>
   <g id="legend_1">
    <g id="line2d_37">
     <path d="M 74.077352 299.023074 
L 82.327352 299.023074 
L 90.577352 299.023074 
" style="fill: none; stroke: #1d9e75; stroke-width: 2; stroke-linecap: square"/>
    </g>
    <g id="text_26">
     <text style="font-size: 7.5px; font-family: 'DejaVu Sans'; text-anchor: start" x="96.577352" y="301.648074" transform="rotate(-0 96.577352 301.648074)">Full geometry (blade-resolved)</text>
    </g>
    <g id="line2d_38">
     <path d="M 222.31368 299.023074 
L 230.56368 299.023074 
L 238.81368 299.023074 
" style="fill: none; stroke: #d85a30; stroke-width: 2; stroke-linecap: square"/>
    </g>
    <g id="text_27">
     <text style="font-size: 7.5px; font-family: 'DejaVu Sans'; text-anchor: start" x="244.81368" y="301.648074" transform="rotate(-0 244.81368 301.648074)">Actuator line/disk</text>
    </g>
    <g id="line2d_39">
     <path d="M 320.878914 299.023074 
L 329.128914 299.023074 
L 337.378914 299.023074 
" style="fill: none; stroke: #555555; stroke-width: 1.3; stroke-linecap: square"/>
    </g>
    <g id="text_28">
     <text style="font-size: 7.5px; font-family: 'DejaVu Sans'; text-anchor: start" x="343.378914" y="301.648074" transform="rotate(-0 343.378914 301.648074)">LES</text>
    </g>
    <g id="line2d_40">
     <path d="M 367.558211 299.023074 
L 375.808211 299.023074 
L 384.058211 299.023074 
" style="fill: none; stroke-dasharray: 6.5,3.9; stroke-dashoffset: 0; stroke: #555555; stroke-width: 1.3"/>
    </g>
    <g id="text_29">
     <text style="font-size: 7.5px; font-family: 'DejaVu Sans'; text-anchor: start" x="390.058211" y="301.648074" transform="rotate(-0 390.058211 301.648074)">URANS</text>
    </g>
   </g>
  </g>
 </g>
 <defs>
  <clipPath id="p0dd54f3dad">
   <rect x="10.587344" y="7.2" width="468.864" height="238.392"/>
  </clipPath>
 </defs>
</svg>
